PathFileType	4	(X/Y/Z)	s04c0001.trc
DataRate	CameraRate	NumFrames	NumMarkers	Units	OrigDataRate	OrigDataStartFrame	OrigNumFrames
200	200	4	49	mm	200	1000	2000
Frame#	Time	racr			lacr			c7			jug			rlel			rdr			llel			ldr			s2			lic			ric			lasi			rasi			rpsi			lpsi			rgt			lgt			rth1			rth2			rth3			rth4			rlfc			rmfc			rsh1			rsh2			rsh3			rsh4			rlmal			rmmal			rcal			rtoe			rmt5			rmt1			lth1			lth2			lth4			lth3			llfc			lmfc			lsh1			lsh2			lsh3			lsh4			llmal			lmmal			lcal			ltoe			lmt1			lmt5			
		X1	Y1	Z1	X2	Y2	Z2	X3	Y3	Z3	X4	Y4	Z4	X5	Y5	Z5	X6	Y6	Z6	X7	Y7	Z7	X8	Y8	Z8	X9	Y9	Z9	X10	Y10	Z10	X11	Y11	Z11	X12	Y12	Z12	X13	Y13	Z13	X14	Y14	Z14	X15	Y15	Z15	X16	Y16	Z16	X17	Y17	Z17	X18	Y18	Z18	X19	Y19	Z19	X20	Y20	Z20	X21	Y21	Z21	X22	Y22	Z22	X23	Y23	Z23	X24	Y24	Z24	X25	Y25	Z25	X26	Y26	Z26	X27	Y27	Z27	X28	Y28	Z28	X29	Y29	Z29	X30	Y30	Z30	X31	Y31	Z31	X32	Y32	Z32	X33	Y33	Z33	X34	Y34	Z34	X35	Y35	Z35	X36	Y36	Z36	X37	Y37	Z37	X38	Y38	Z38	X39	Y39	Z39	X40	Y40	Z40	X41	Y41	Z41	X42	Y42	Z42	X43	Y43	Z43	X44	Y44	Z44	X45	Y45	Z45	X46	Y46	Z46	X47	Y47	Z47	X48	Y48	Z48	X49	Y49	Z49	
1000	5.0000	171.475662	1569.793945	287.375916	199.531845	1568.861328	-78.990883	114.905220	1592.338257	88.089180	252.991638	1535.336792	101.849510	101.267982	1231.498535	391.732056	218.180389	993.078430	504.548615	161.418564	1255.717529	-199.139053	299.079163	996.122986	-279.992035	67.539742	1053.935059	97.504990	243.741119	1114.534790	-46.417736	204.369141	1101.425537	272.491241	290.455597	1057.816528	5.528979	269.816254	1060.360718	230.531921	83.227539	1089.222412	141.823883	85.297905	1085.511841	62.664082	168.991669	1000.883118	277.009064	192.254166	956.183838	-68.517868	183.391846	865.576416	298.750671	197.958008	778.904236	288.919281	170.724426	698.797241	279.341858	232.843658	777.841553	278.632141	155.898254	547.939026	249.351807	163.292191	525.328491	139.214478	106.948601	425.735260	267.881287	122.696609	336.205109	259.591736	89.480553	257.115906	242.818817	158.804108	335.349030	245.532791	89.296822	103.336861	231.469193	138.730042	111.303055	159.283066	48.258331	68.317673	168.046692	314.085327	83.308289	304.769226	232.203766	52.812550	326.666779	279.388489	49.893543	227.725845	195.403000	862.378418	-81.047676	214.651810	777.620972	-78.835808	249.975189	776.289673	-68.751915	188.516678	692.576965	-73.261391	167.417313	551.862000	-54.495438	193.071732	521.925415	49.994488	150.470200	423.648621	-80.845222	172.412598	339.762939	-68.296112	148.521515	253.997223	-67.812805	201.724319	341.075531	-42.066147	146.904083	104.587654	-63.877159	154.824493	100.159470	21.996174	80.146004	77.319145	-14.608695	376.956116	82.959564	-57.741028	312.834778	55.024281	0.014493	302.229706	43.162090	-111.014427	
1001	5.0050	171.508301	1569.793091	287.394836	199.561539	1568.834717	-78.971802	114.958046	1592.351929	88.145050	253.032288	1535.323730	101.879494	101.259109	1231.494263	391.744720	218.123657	993.055847	504.544983	161.456940	1255.704590	-199.097946	299.105713	996.097900	-279.944427	67.566498	1053.927368	97.507660	243.729736	1114.531738	-46.404076	204.388794	1101.427979	272.499512	290.481232	1057.810791	5.543434	269.836151	1060.348877	230.541031	83.250893	1089.219116	141.822861	85.311478	1085.515869	62.666779	169.001007	1000.868774	277.023071	192.274399	956.188293	-68.489227	183.399460	865.566040	298.762726	197.948074	778.892090	288.924835	170.714920	698.796082	279.336639	232.852371	777.848389	278.641968	155.893082	547.912231	249.355225	163.296341	525.305298	139.218369	106.933746	425.736633	267.880280	122.713364	336.206329	259.588867	89.475220	257.123016	242.824738	158.806168	335.355194	245.540024	89.305046	103.328278	231.475006	138.740433	111.283859	159.282974	48.261372	68.305443	168.055939	314.100525	83.303604	304.755219	232.216812	52.826981	326.679932	279.402283	49.896477	227.729660	195.393692	862.369385	-81.039108	214.662949	777.624878	-78.850044	249.992355	776.283447	-68.728157	188.509766	692.577698	-73.266815	167.415619	551.871277	-54.493591	193.066055	521.938477	50.014404	150.476135	423.648621	-80.849091	172.427704	339.769409	-68.287270	148.506744	253.995392	-67.810936	201.721100	341.055420	-42.059219	146.911072	104.562378	-63.897034	154.803940	100.199120	21.993582	80.145294	77.324219	-14.613024	376.951416	82.950935	-57.726170	312.831055	55.018898	0.002168	302.225342	43.166344	-110.982346	
1002	5.0100	171.549942	1569.781982	287.413696	199.595154	1568.831421	-78.943733	115.019478	1592.339478	88.109756	253.062744	1535.320435	101.920753	101.262344	1231.465454	391.740753	218.067078	993.025818	504.559814	161.480118	1255.691895	-199.076767	299.119446	996.073120	-279.928192	67.586220	1053.938721	97.511131	243.789841	1114.531006	-46.417168	204.379288	1101.419434	272.531097	290.492126	1057.798584	5.558634	269.836670	1060.345337	230.577087	83.277313	1089.216675	141.832932	85.349602	1085.518921	62.666267	169.006302	1000.870361	277.023132	192.299042	956.173035	-68.477577	183.404160	865.542664	298.782288	197.933685	778.887756	288.933777	170.700836	698.792969	279.351440	232.850967	777.835876	278.643860	155.883713	547.933472	249.356583	163.293289	525.315125	139.215408	106.931610	425.730713	267.876678	122.676743	336.231567	259.595032	89.464989	257.127350	242.808258	158.792892	335.339203	245.540741	89.308228	103.326653	231.464050	138.739502	111.299210	159.275024	48.252514	68.305054	168.050110	314.098297	83.302383	304.765869	232.202271	52.816982	326.673828	279.392822	49.886627	227.712952	195.417923	862.380676	-81.028465	214.684113	777.619507	-78.826645	249.992722	776.281494	-68.728691	188.518173	692.581299	-73.263229	167.429611	551.872070	-54.491516	193.088715	521.933411	50.018299	150.465546	423.644104	-80.856384	172.422455	339.763275	-68.291748	148.512009	253.990051	-67.816811	201.720566	341.056061	-42.053715	146.910522	104.569786	-63.866405	154.821198	100.195717	21.990366	80.139282	77.323029	-14.607802	376.956848	82.945709	-57.727184	312.828094	55.018330	0.004219	302.238861	43.161430	-110.994110	
1003	5.0150	171.587265	1569.758667	287.434357	199.621552	1568.797485	-78.914833	115.043350	1592.352783	88.149117	253.111496	1535.302368	101.929031	101.250061	1231.470337	391.746124	218.025513	993.000488	504.567383	161.512695	1255.670288	-199.050369	299.136444	996.066650	-279.900848	67.586693	1053.945435	97.506271	243.788803	1114.529785	-46.405457	204.393494	1101.416260	272.536560	290.511200	1057.794312	5.571269	269.842651	1060.344849	230.587097	83.290604	1089.231323	141.836487	85.364258	1085.517944	62.673748	169.017990	1000.863159	277.032562	192.316483	956.178101	-68.474251	183.394226	865.557800	298.781067	197.934830	778.886597	288.943878	170.691925	698.789368	279.354767	232.834488	777.837341	278.656189	155.887161	547.911255	249.361084	163.286469	525.317017	139.210815	106.924599	425.734039	267.867706	122.687294	336.228058	259.585815	89.477432	257.111816	242.811722	158.794815	335.355560	245.540939	89.306335	103.341026	231.465012	138.740173	111.292313	159.271088	48.254478	68.309143	168.041824	314.085236	83.315086	304.762329	232.201172	52.827961	326.668518	279.398743	49.885799	227.726944	195.423340	862.376709	-81.025696	214.687317	777.629883	-78.826698	250.005600	776.271667	-68.742386	188.524490	692.586182	-73.264618	167.418945	551.872192	-54.489319	193.088715	521.933411	50.018303	150.489090	423.643799	-80.835770	172.427628	339.766327	-68.276360	148.515976	253.991562	-67.807648	201.727768	341.054626	-42.052505	146.890457	104.583336	-63.904602	154.843231	100.193192	21.977049	80.145988	77.316376	-14.603872	376.940857	82.953842	-57.728340	312.838074	55.025581	0.008602	302.217560	43.161205	-110.992722	
